<?xml version="1.0" encoding="UTF-8"?>
<svg id="Layer_1" data-name="Layer 1" xmlns="http://www.w3.org/2000/svg" viewBox="0 0 32 32">
  <defs>
    <style>
      .cls-1 {
        fill: #fff;
      }
    </style>
  </defs>
  <rect y="5.49" width="32" height="21.03"/>
  <g>
    <path class="cls-1" d="M31.71,9.53v3.15c0,.63-.17,1.25-.49,1.78-1.27,2.09-1.61,5.19-1.17,7.93.05.3-.18.56-.48.56h-4.1c-.3,0-.53-.27-.48-.56.45-2.76.1-5.89-1.2-7.98-.3-.49-.46-1.05-.46-1.63v-3.26c0-.27.22-.49.49-.49h3.81c.24,0,.44.17.48.41.28,1.65-.02,3.84-.86,4.55-.04.04-.1.06-.15.08-.69.25.1.88.64.4,1-1.1,1.31-3.11,1.03-4.87-.05-.3.18-.56.48-.56h1.98c.27,0,.49.22.49.49Z"/>
    <path class="cls-1" d="M13.68,9.04h-1.79c-1.58,0-2.86,1.28-2.86,2.86v8.2c0,1.58,1.28,2.86,2.86,2.86h1.79c1.58,0,2.86-1.28,2.86-2.86v-8.2c0-1.58-1.28-2.86-2.86-2.86ZM12.74,19.16c-.49.48-1.22-.14-.59-.4.05-.02.1-.04.14-.08,1.13-1.03,1.19-5.24.07-6.27-.37-.34-.21-.57.04-.62.2-.04.4.07.51.24,1.14,1.8,1.2,5.48-.18,7.12Z"/>
    <path class="cls-1" d="M8.66,9.53v12.94c0,.27-.22.49-.49.49h-3.26c-.2,0-.38-.12-.46-.31-.65-1.61-.43-4.66.6-5.52.04-.04.1-.06.15-.08.7-.25-.1-.88-.64-.4-1.16,1.28-1.39,3.78-.85,5.69.09.31-.15.62-.47.62H.78c-.27,0-.49-.22-.49-.49v-12.94c0-.27.22-.49.49-.49h3.46c.24,0,.44.17.48.41.28,1.65-.02,3.84-.86,4.55-.04.04-.1.06-.15.08-.69.25.1.88.64.4,1-1.1,1.31-3.11,1.03-4.87-.05-.3.18-.57.48-.57h2.32c.27,0,.49.22.49.49Z"/>
    <path class="cls-1" d="M24.8,20.54c-.06.65-.11,1.1-.42,1.53-.46.6-.99.8-1.42.88-.02,0-.05,0-.07,0-.48,0-5.48,0-5.48,0-.04,0-.08,0-.12-.02-.21-.05-.37-.25-.37-.48.04-4.1-.02-8.83,0-12.95,0-.26.23-.48.49-.48h4.35c.21,0,.39.12.48.3.18.38.29,1,.32,1.23.11.84.17,1.64.14,2.41,0,.24-.11.9-.11.91-.29,1.43-1.06,2.67-2,3.78,0,0,.02-.02.02-.03,0,0,0,0,0,0,0,0-.39.41-.64.85-.19.33-.34.62-.32,1.01,0,.14.03.57.31.7.21.1.5,0,.57-.13.01-.02.04-.06.03-.12,0-.05-.04-.08-.08-.13-.06-.07-.14-.19-.16-.34-.02-.18.05-.34.22-.61.18-.28.33-.46.52-.71.3-.39.45-.58.59-.77.16-.22.3-.43.42-.62.12-.18.25-.39.41-.68.1-.18.21-.39.33-.68.08-.19.17-.41.25-.71.07-.28.11-.52.12-.7.48.79.78,1.49.97,1.99.7,1.86.76,3.26.64,4.54Z"/>
  </g>
</svg>