<?xml version="1.0" encoding="UTF-8"?>
<svg id="Layer_1" xmlns="http://www.w3.org/2000/svg" version="1.1" viewBox="0 0 1999.92 885.66">
  <!-- Generator: Adobe Illustrator 29.7.1, SVG Export Plug-In . SVG Version: 2.1.1 Build 8)  -->
  <defs>
    <style>
      .st0 {
        fill: #fff;
      }
    </style>
  </defs>
  <path class="st0" d="M1999.92,30.91v200.48c0,39.94-10.54,79.29-31.29,113.42-80.78,132.81-102.64,330.17-74.34,504.99,3.03,18.79-11.4,35.86-30.46,35.86h-260.62c-19.04,0-33.49-17.06-30.44-35.87,28.48-175.97,6.11-374.81-76.1-507.7-19.3-31.19-29.55-67.14-29.55-103.83V30.91C1467.12,13.83,1480.95,0,1498.03,0h242.26c15.13,0,27.99,10.91,30.51,25.83,17.78,105.03-1.26,244.24-54.63,289.37-2.86,2.26-6.19,3.74-9.63,5.02-44.23,16.1,6.68,55.82,40.79,25.34,63.74-70.02,83.09-198.02,65.37-309.76C1809.73,17.01,1824.14,0,1843.16,0h125.85c17.08,0,30.91,13.83,30.91,30.91Z"/>
  <path class="st0" d="M852.38,0h-114.1c-100.42,0-181.84,81.4-181.84,181.82v521.91c0,100.48,81.46,181.93,181.93,181.93h114c100.36,0,181.84-81.49,181.84-181.93V181.94C1034.22,81.48,952.74,0,852.38,0ZM792.33,644.08c-31.15,30.27-77.73-9.14-37.25-25.17,3.14-1.28,6.19-2.75,8.75-5,71.75-65.86,75.68-333.39,4.72-398.86-23.5-21.61-13.26-36.36,2.45-39.51,12.98-2.56,25.66,4.42,32.64,15.52,72.33,114.81,76.17,348.63-11.31,453.02Z"/>
  <path class="st0" d="M532.8,31.1v823.54c0,17.16-13.9,31.06-31.04,31.06h-207.52c-12.81,0-24.23-7.86-29.01-19.75-41.2-102.41-27.05-296.39,37.89-351.28,2.75-2.26,6.08-3.74,9.52-5.02,44.34-16.1-6.58-55.72-40.69-25.25-74.01,81.25-88.17,240.55-54.12,361.89,5.57,19.79-9.31,39.41-29.87,39.41H31.06c-17.16,0-31.06-13.9-31.06-31.06V31.1C0,13.94,13.9.04,31.06.04h219.91c15.18,0,28.11,10.95,30.66,25.9,17.91,105.05-1.15,244.46-54.59,289.59-2.77,2.26-6.1,3.72-9.54,5-44.23,16.12,6.68,55.74,40.69,25.27,63.79-70.08,83.17-198.06,65.43-309.78C320.63,17.14,335.12.04,354.23.04h147.53c17.14,0,31.04,13.9,31.04,31.06Z"/>
  <path class="st0" d="M1560.09,732.01c-3.87,41.54-6.87,69.76-26.69,97.58-29.34,37.98-63.25,51.12-90.68,55.72-1.53.26-3.05.37-4.6.37-30.35,0-349,0-349,0-2.65,0-5.31-.3-7.77-1-13.56-3.42-23.48-15.61-23.48-30.27,2.67-260.7-1.14-561.68.24-823.9-.32-16.6,14.43-30.76,31-30.49h277.01c13.11,0,25.13,7.47,30.76,19.32,11.4,24.06,18.4,63.62,20.32,77.98,7.15,53.48,11,104.33,9.22,153.26.22,15.51-7.11,57-7.3,57.75-18.27,91.19-67.74,169.93-127.07,240.57.51-.53,1.03-1.07,1.56-1.6,0,0,0,0,0,0,0-.02-24.52,25.86-40.64,54.07-11.86,20.76-21.84,39.38-20.59,64.14.44,8.67,1.7,36.34,19.66,44.57,13.24,6.06,31.62-.22,36.42-8.11.67-1.1,2.38-3.91,1.97-7.37-.38-3.2-2.34-5.13-5.1-8.36-3.82-4.38-9.07-11.79-10.38-21.72-1.55-11.72,3.08-21.77,13.86-38.68,11.5-18.04,20.79-29.25,33.22-45.15,19.3-24.67,28.95-37,37.82-49.31,10.11-14.03,18.98-27.23,26.71-39.29,7.35-11.47,15.92-24.9,25.97-43.38,6.1-11.21,13.32-24.55,21.14-43.02,5.2-12.3,11-25.99,15.98-44.98,4.64-17.7,6.74-33.02,7.76-44.38,30.7,50.12,49.93,94.58,61.91,126.5,44.48,118.53,48.4,207.39,40.77,289.18Z"/>
</svg>